<svg width="17" height="18" viewBox="0 0 17 18" fill="none" xmlns="http://www.w3.org/2000/svg">
<path d="M2.5 16H5.5V11C5.5 10.7167 5.59583 10.4792 5.7875 10.2875C5.97917 10.0958 6.21667 10 6.5 10H10.5C10.7833 10 11.0208 10.0958 11.2125 10.2875C11.4042 10.4792 11.5 10.7167 11.5 11V16H14.5V7L8.5 2.5L2.5 7V16ZM0.5 16V7C0.5 6.68333 0.570833 6.38333 0.7125 6.1C0.854167 5.81667 1.05 5.58333 1.3 5.4L7.3 0.9C7.65 0.633333 8.05 0.5 8.5 0.5C8.95 0.5 9.35 0.633333 9.7 0.9L15.7 5.4C15.95 5.58333 16.1458 5.81667 16.2875 6.1C16.4292 6.38333 16.5 6.68333 16.5 7V16C16.5 16.55 16.3042 17.0208 15.9125 17.4125C15.5208 17.8042 15.05 18 14.5 18H10.5C10.2167 18 9.97917 17.9042 9.7875 17.7125C9.59583 17.5208 9.5 17.2833 9.5 17V12H7.5V17C7.5 17.2833 7.40417 17.5208 7.2125 17.7125C7.02083 17.9042 6.78333 18 6.5 18H2.5C1.95 18 1.47917 17.8042 1.0875 17.4125C0.695833 17.0208 0.5 16.55 0.5 16Z" fill="#1C1B1F"/>
</svg>
