<svg width="17" height="16" viewBox="0 0 17 16" fill="none" xmlns="http://www.w3.org/2000/svg">
<path d="M8.1001 8C7.0001 8 6.05843 7.60833 5.2751 6.825C4.49176 6.04167 4.1001 5.1 4.1001 4C4.1001 2.9 4.49176 1.95833 5.2751 1.175C6.05843 0.391667 7.0001 0 8.1001 0C9.2001 0 10.1418 0.391667 10.9251 1.175C11.7084 1.95833 12.1001 2.9 12.1001 4C12.1001 5.1 11.7084 6.04167 10.9251 6.825C10.1418 7.60833 9.2001 8 8.1001 8ZM0.100098 14V13.2C0.100098 12.6333 0.245931 12.1125 0.537598 11.6375C0.829264 11.1625 1.21676 10.8 1.7001 10.55C2.73343 10.0333 3.78343 9.64583 4.8501 9.3875C5.91676 9.12917 7.0001 9 8.1001 9C9.2001 9 10.2834 9.12917 11.3501 9.3875C12.4168 9.64583 13.4668 10.0333 14.5001 10.55C14.9834 10.8 15.3709 11.1625 15.6626 11.6375C15.9543 12.1125 16.1001 12.6333 16.1001 13.2V14C16.1001 14.55 15.9043 15.0208 15.5126 15.4125C15.1209 15.8042 14.6501 16 14.1001 16H2.1001C1.5501 16 1.07926 15.8042 0.687598 15.4125C0.295931 15.0208 0.100098 14.55 0.100098 14Z" fill="#0075FF"/>
</svg>
