<svg width="14" height="14" viewBox="0 0 14 14" fill="none" xmlns="http://www.w3.org/2000/svg">
<path d="M6.61835 0.820337C6.77435 0.504305 7.225 0.504305 7.381 0.820337L9.01274 4.12607C9.13652 4.37683 9.37567 4.55073 9.65238 4.59117L13.3021 5.12464C13.6508 5.1756 13.7898 5.60418 13.5373 5.85005L10.8974 8.42133C10.6968 8.61673 10.6052 8.89835 10.6526 9.17436L11.2755 12.8064C11.3351 13.1538 10.9704 13.4187 10.6585 13.2547L7.39554 11.5387C7.14772 11.4084 6.85163 11.4084 6.60381 11.5387L3.34089 13.2547C3.02892 13.4187 2.66425 13.1538 2.72383 12.8064L3.34677 9.17436C3.39411 8.89835 3.30254 8.61673 3.10193 8.42133L0.46201 5.85005C0.209584 5.60418 0.348549 5.1756 0.697217 5.12464L4.34697 4.59117C4.62368 4.55073 4.86283 4.37683 4.98661 4.12607L6.61835 0.820337Z" fill="#FFD15B"/>
</svg>
